<?xml version="1.0" standalone="no"?><!DOCTYPE svg PUBLIC "-//W3C//DTD SVG 1.1//EN" "http://www.w3.org/Graphics/SVG/1.1/DTD/svg11.dtd"><svg height="166" node-id="1" sillyvg="true" template-height="166" template-width="160" version="1.1" viewBox="0 0 160 166" width="160" xmlns="http://www.w3.org/2000/svg" xmlns:xlink="http://www.w3.org/1999/xlink"><defs node-id="36"><linearGradient gradientUnits="objectBoundingBox" id="linearGradient-1" node-id="5" spreadMethod="pad" x1="0.8739956" x2="0.37042844" y1="-0.098457776" y2="0.7279418"><stop offset="0" stop-color="#81e6ff"></stop><stop offset="1" stop-color="#409eff"></stop></linearGradient><linearGradient gradientUnits="objectBoundingBox" id="linearGradient-2" node-id="8" spreadMethod="pad" x1="0.8739956" x2="0.12600438" y1="0" y2="1"><stop offset="0" stop-color="#979797" stop-opacity="0"></stop><stop offset="1" stop-color="#ffffff" stop-opacity="0.3809456"></stop></linearGradient><linearGradient gradientUnits="objectBoundingBox" id="linearGradient-3" node-id="11" spreadMethod="pad" x1="0.5" x2="0.5" y1="0" y2="1"><stop offset="0" stop-color="#ffffff" stop-opacity="0.2777885"></stop><stop offset="1" stop-color="#ffffff" stop-opacity="0.6"></stop></linearGradient><linearGradient gradientUnits="objectBoundingBox" id="linearGradient-4" node-id="14" spreadMethod="pad" x1="0.5" x2="0.35233045" y1="0.58925253" y2="1"><stop offset="0" stop-color="#ffffff" stop-opacity="0"></stop><stop offset="0.9999999" stop-color="#ffffff" stop-opacity="0.72196054"></stop><stop offset="1" stop-color="#ffffff" stop-opacity="0.72196054"></stop></linearGradient><linearGradient gradientUnits="objectBoundingBox" id="linearGradient-5" node-id="20" spreadMethod="pad" x1="0.5" x2="0.5" y1="0" y2="1"><stop offset="0" stop-color="#ffffff" stop-opacity="0"></stop><stop offset="1" stop-color="#ffffff" stop-opacity="0.72196054"></stop></linearGradient><linearGradient gradientUnits="objectBoundingBox" id="linearGradient-6" node-id="23" spreadMethod="pad" x1="0.5" x2="-0.13938391" y1="0.73701227" y2="1.1184525"><stop offset="0" stop-color="#ffffff" stop-opacity="0"></stop><stop offset="1" stop-color="#ffffff"></stop></linearGradient></defs><g node-id="75"><g node-id="76"><path d="M 40.00 0.00 L 120.00 0.00 L 128.10 0.80 L 135.60 3.10 L 142.40 6.80 L 145.40 9.10 L 150.90 14.60 L 155.20 20.90 L 158.20 28.10 L 159.20 31.90 L 160.00 40.00 L 160.00 126.00 L 159.20 134.10 L 158.20 137.90 L 155.20 145.10 L 150.90 151.40 L 145.40 156.90 L 139.10 161.20 L 135.60 162.90 L 128.10 165.20 L 124.20 165.80 L 120.00 166.00 L 40.00 166.00 L 31.90 165.20 L 24.40 162.90 L 17.60 159.20 L 14.60 156.90 L 9.10 151.40 L 4.80 145.10 L 1.80 137.90 L 0.80 134.10 L 0.00 126.00 L 0.00 40.00 L 0.80 31.90 L 1.80 28.10 L 4.80 20.90 L 9.10 14.60 L 14.60 9.10 L 20.90 4.80 L 28.10 1.80 L 35.80 0.20 L 40.00 0.00 Z" fill="#2b415e" fill-opacity="0.94" fill-rule="nonzero" group-id="1,2" id="背景" node-id="29" stroke="none" target-height="166" target-width="160" target-x="0" target-y="0"></path><g node-id="77"><path d="M 78.00 23.70 L 87.80 24.50 L 92.40 25.50 L 101.40 28.40 L 109.60 32.70 L 113.40 35.30 L 118.20 39.20 L 122.50 43.50 L 126.40 48.30 L 131.30 56.10 L 133.30 60.30 L 136.30 69.30 L 137.20 73.90 L 138.00 83.70 L 137.20 93.50 L 136.30 98.20 L 133.30 107.10 L 129.00 115.30 L 126.40 119.10 L 122.50 123.90 L 118.20 128.20 L 113.40 132.10 L 105.60 137.00 L 97.00 140.60 L 92.40 142.00 L 83.00 143.50 L 78.00 143.70 L 73.00 143.50 L 68.20 142.90 L 59.00 140.60 L 54.60 139.00 L 46.40 134.70 L 42.60 132.10 L 37.80 128.20 L 33.50 123.90 L 29.60 119.10 L 24.70 111.30 L 22.70 107.10 L 19.70 98.20 L 18.80 93.50 L 18.00 83.70 L 18.80 73.90 L 19.70 69.30 L 22.70 60.30 L 27.00 52.10 L 29.60 48.30 L 33.50 43.50 L 37.80 39.20 L 42.60 35.30 L 50.40 30.40 L 54.60 28.40 L 63.60 25.50 L 68.20 24.50 L 78.00 23.70 Z" fill="none" group-id="1,2,3" id="选中背景" node-id="31" stroke="none" target-height="120" target-width="120" target-x="18" target-y="23.7"></path><path d="M 102.00 50.20 L 103.50 50.40 L 105.90 51.80 L 107.30 54.20 L 107.50 55.70 L 107.50 120.60 L 107.10 121.70 L 106.00 122.10 L 78.30 109.60 L 76.00 109.10 L 73.70 109.60 L 46.60 122.00 L 46.00 122.10 L 45.00 121.70 L 44.50 120.60 L 44.50 55.70 L 44.70 54.20 L 46.10 51.80 L 48.50 50.40 L 50.00 50.20 Z" fill="url(#linearGradient-1)" fill-rule="evenodd" group-id="1,2,3" id="矩形" node-id="32" stroke="url(#linearGradient-2)" stroke-linecap="butt" stroke-width="1" target-height="71.899994" target-width="63" target-x="44.5" target-y="50.2"></path><g node-id="78"><path d="M 120.10 52.60 L 121.40 53.40 L 123.00 55.60 L 123.30 58.40 L 122.90 59.90 L 104.30 101.70 L 103.50 102.50 L 102.30 102.50 L 88.80 87.00 L 86.90 85.60 L 84.50 85.10 L 64.60 85.50 L 63.50 85.10 L 63.00 84.10 L 81.80 41.50 L 82.60 40.30 L 84.90 38.60 L 87.60 38.30 L 89.10 38.80 Z" fill="url(#linearGradient-3)" fill-rule="evenodd" group-id="1,2,3,4" id="矩形" node-id="33" stroke="url(#linearGradient-4)" stroke-linecap="butt" stroke-width="1" target-height="64.2" target-width="60.300003" target-x="63" target-y="38.3"></path></g><path d="M 107.50 62.20 L 106.90 65.70 L 105.10 68.70 L 102.50 70.80 L 101.00 71.60 L 97.50 72.20 L 94.00 71.60 L 91.00 69.80 L 88.90 67.30 L 87.70 64.00 L 87.70 60.40 L 88.10 58.70 L 89.90 55.80 L 92.50 53.60 L 94.00 52.80 L 97.50 52.20 L 101.00 52.80 L 104.00 54.60 L 106.10 57.20 L 106.90 58.70 L 107.50 62.20 Z" fill="url(#linearGradient-5)" fill-rule="evenodd" group-id="1,2,3" id="椭圆形" node-id="34" stroke="url(#linearGradient-6)" stroke-linecap="butt" stroke-width="1" target-height="19.999996" target-width="19.800003" target-x="87.7" target-y="52.2"></path></g></g></g></svg>